<svg width="395" height="69" viewBox="0 0 395 69" fill="none" xmlns="http://www.w3.org/2000/svg">
<path d="M20.3564 68H6.42578L6.51367 57.7168H20.3564C23.8135 57.7168 26.7285 56.9404 29.1016 55.3877C31.4746 53.8057 33.2617 51.5059 34.4629 48.4883C35.6934 45.4707 36.3086 41.8232 36.3086 37.5459V34.4258C36.3086 31.1445 35.957 28.2588 35.2539 25.7686C34.5801 23.2783 33.5693 21.1836 32.2217 19.4844C30.874 17.7852 29.2188 16.5107 27.2559 15.6611C25.293 14.7822 23.0371 14.3428 20.4883 14.3428H6.16211V4.01562H20.4883C24.7656 4.01562 28.6768 4.74805 32.2217 6.21289C35.7959 7.64844 38.8867 9.71387 41.4941 12.4092C44.1016 15.1045 46.1084 18.3271 47.5146 22.0771C48.9502 25.7979 49.668 29.9434 49.668 34.5137V37.5459C49.668 42.0869 48.9502 46.2324 47.5146 49.9824C46.1084 53.7324 44.1016 56.9551 41.4941 59.6504C38.916 62.3164 35.8252 64.3818 32.2217 65.8467C28.6475 67.2822 24.6924 68 20.3564 68ZM13.8965 4.01562V68H0.712891V4.01562H13.8965ZM80.3418 68.8789C76.6504 68.8789 73.3398 68.293 70.4102 67.1211C67.4805 65.9199 64.9902 64.2646 62.9395 62.1553C60.918 60.0459 59.3652 57.5996 58.2812 54.8164C57.1973 52.0039 56.6553 49.0156 56.6553 45.8516V44.0938C56.6553 40.4902 57.168 37.1943 58.1934 34.2061C59.2188 31.2178 60.6836 28.625 62.5879 26.4277C64.5215 24.2305 66.8652 22.5459 69.6191 21.374C72.373 20.1729 75.4785 19.5723 78.9355 19.5723C82.3047 19.5723 85.293 20.1289 87.9004 21.2422C90.5078 22.3555 92.6904 23.9375 94.4482 25.9883C96.2354 28.0391 97.583 30.5 98.4912 33.3711C99.3994 36.2129 99.8535 39.377 99.8535 42.8633V48.1367H62.0605V39.6992H87.417V38.7324C87.417 36.9746 87.0947 35.4072 86.4502 34.0303C85.835 32.624 84.8975 31.5107 83.6377 30.6904C82.3779 29.8701 80.7666 29.46 78.8037 29.46C77.1338 29.46 75.6982 29.8262 74.4971 30.5586C73.2959 31.291 72.3145 32.3164 71.5527 33.6348C70.8203 34.9531 70.2637 36.5059 69.8828 38.293C69.5312 40.0508 69.3555 41.9844 69.3555 44.0938V45.8516C69.3555 47.7559 69.6191 49.5137 70.1465 51.125C70.7031 52.7363 71.4795 54.1279 72.4756 55.2998C73.501 56.4717 74.7314 57.3799 76.167 58.0244C77.6318 58.6689 79.2871 58.9912 81.1328 58.9912C83.418 58.9912 85.542 58.5518 87.5049 57.6729C89.4971 56.7646 91.2109 55.4023 92.6465 53.5859L98.7988 60.2656C97.8027 61.7012 96.4404 63.0781 94.7119 64.3965C93.0127 65.7148 90.9619 66.7988 88.5596 67.6484C86.1572 68.4688 83.418 68.8789 80.3418 68.8789ZM122.617 58.7715L133.164 20.4512H146.392L130.352 68H122.354L122.617 58.7715ZM115.366 20.4512L125.957 58.8154L126.177 68H118.135L102.095 20.4512H115.366ZM177.769 54.8604C177.769 53.9521 177.505 53.1318 176.978 52.3994C176.45 51.667 175.469 50.9932 174.033 50.3779C172.627 49.7334 170.591 49.1475 167.925 48.6201C165.522 48.0928 163.281 47.4336 161.201 46.6426C159.15 45.8223 157.363 44.8408 155.84 43.6982C154.346 42.5557 153.174 41.208 152.324 39.6553C151.475 38.0732 151.05 36.2715 151.05 34.25C151.05 32.2578 151.475 30.3828 152.324 28.625C153.203 26.8672 154.448 25.3145 156.06 23.9668C157.7 22.5898 159.692 21.5205 162.036 20.7588C164.409 19.9678 167.075 19.5723 170.034 19.5723C174.165 19.5723 177.71 20.2314 180.669 21.5498C183.657 22.8682 185.942 24.6846 187.524 26.999C189.136 29.2842 189.941 31.8916 189.941 34.8213H177.285C177.285 33.5908 177.021 32.4922 176.494 31.5254C175.996 30.5293 175.205 29.7529 174.121 29.1963C173.066 28.6104 171.689 28.3174 169.99 28.3174C168.584 28.3174 167.368 28.5664 166.343 29.0645C165.317 29.5332 164.526 30.1777 163.97 30.998C163.442 31.7891 163.179 32.668 163.179 33.6348C163.179 34.3672 163.325 35.0264 163.618 35.6123C163.94 36.1689 164.453 36.6816 165.156 37.1504C165.859 37.6191 166.768 38.0586 167.881 38.4688C169.023 38.8496 170.43 39.2012 172.1 39.5234C175.527 40.2266 178.589 41.1494 181.284 42.292C183.979 43.4053 186.118 44.9287 187.7 46.8623C189.282 48.7666 190.073 51.2715 190.073 54.377C190.073 56.4863 189.604 58.4199 188.667 60.1777C187.729 61.9355 186.382 63.4736 184.624 64.792C182.866 66.0811 180.757 67.0918 178.296 67.8242C175.864 68.5273 173.125 68.8789 170.078 68.8789C165.654 68.8789 161.904 68.0879 158.828 66.5059C155.781 64.9238 153.467 62.917 151.885 60.4854C150.332 58.0244 149.556 55.5049 149.556 52.9268H161.553C161.611 54.6553 162.051 56.0469 162.871 57.1016C163.721 58.1562 164.79 58.918 166.079 59.3867C167.397 59.8555 168.818 60.0898 170.342 60.0898C171.982 60.0898 173.345 59.8701 174.429 59.4307C175.513 58.9619 176.333 58.3467 176.89 57.585C177.476 56.7939 177.769 55.8857 177.769 54.8604ZM198.291 0.5H210.947V57.1016L209.673 68H198.291V0.5ZM241.05 43.7422V44.665C241.05 48.21 240.669 51.4619 239.907 54.4209C239.175 57.3799 238.032 59.9434 236.479 62.1113C234.927 64.25 232.993 65.9199 230.679 67.1211C228.394 68.293 225.698 68.8789 222.593 68.8789C219.692 68.8789 217.173 68.293 215.034 67.1211C212.925 65.9492 211.152 64.2939 209.717 62.1553C208.281 60.0166 207.124 57.5117 206.245 54.6406C205.366 51.7695 204.707 48.6348 204.268 45.2363V43.2148C204.707 39.8164 205.366 36.6816 206.245 33.8105C207.124 30.9395 208.281 28.4346 209.717 26.2959C211.152 24.1572 212.925 22.502 215.034 21.3301C217.144 20.1582 219.634 19.5723 222.505 19.5723C225.64 19.5723 228.364 20.1729 230.679 21.374C233.022 22.5459 234.956 24.2158 236.479 26.3838C238.032 28.5225 239.175 31.0713 239.907 34.0303C240.669 36.96 241.05 40.1973 241.05 43.7422ZM228.394 44.665V43.7422C228.394 41.8086 228.247 39.9922 227.954 38.293C227.69 36.5645 227.222 35.0557 226.548 33.7666C225.874 32.4482 224.951 31.4082 223.779 30.6465C222.637 29.8848 221.157 29.5039 219.341 29.5039C217.612 29.5039 216.147 29.7969 214.946 30.3828C213.745 30.9688 212.749 31.7891 211.958 32.8438C211.196 33.8984 210.625 35.1582 210.244 36.623C209.863 38.0586 209.629 39.6406 209.541 41.3691V47.126C209.629 49.4404 210.01 51.4912 210.684 53.2783C211.387 55.0361 212.441 56.4277 213.848 57.4531C215.283 58.4492 217.144 58.9473 219.429 58.9473C221.216 58.9473 222.695 58.5957 223.867 57.8926C225.039 57.1895 225.947 56.1934 226.592 54.9043C227.266 53.6152 227.734 52.1064 227.998 50.3779C228.262 48.6201 228.394 46.7158 228.394 44.665ZM246.895 44.709V43.7861C246.895 40.2998 247.393 37.0918 248.389 34.1621C249.385 31.2031 250.835 28.6396 252.739 26.4717C254.644 24.3037 256.987 22.6191 259.771 21.418C262.554 20.1875 265.747 19.5723 269.351 19.5723C272.954 19.5723 276.162 20.1875 278.975 21.418C281.787 22.6191 284.146 24.3037 286.05 26.4717C287.983 28.6396 289.448 31.2031 290.444 34.1621C291.44 37.0918 291.938 40.2998 291.938 43.7861V44.709C291.938 48.166 291.44 51.374 290.444 54.333C289.448 57.2627 287.983 59.8262 286.05 62.0234C284.146 64.1914 281.802 65.876 279.019 67.0771C276.235 68.2783 273.042 68.8789 269.438 68.8789C265.835 68.8789 262.627 68.2783 259.814 67.0771C257.031 65.876 254.673 64.1914 252.739 62.0234C250.835 59.8262 249.385 57.2627 248.389 54.333C247.393 51.374 246.895 48.166 246.895 44.709ZM259.551 43.7861V44.709C259.551 46.7012 259.727 48.5615 260.078 50.29C260.43 52.0186 260.986 53.542 261.748 54.8604C262.539 56.1494 263.564 57.1602 264.824 57.8926C266.084 58.625 267.622 58.9912 269.438 58.9912C271.196 58.9912 272.705 58.625 273.965 57.8926C275.225 57.1602 276.235 56.1494 276.997 54.8604C277.759 53.542 278.315 52.0186 278.667 50.29C279.048 48.5615 279.238 46.7012 279.238 44.709V43.7861C279.238 41.8525 279.048 40.0361 278.667 38.3369C278.315 36.6084 277.744 35.085 276.953 33.7666C276.191 32.4189 275.181 31.3643 273.921 30.6025C272.661 29.8408 271.138 29.46 269.351 29.46C267.563 29.46 266.04 29.8408 264.78 30.6025C263.55 31.3643 262.539 32.4189 261.748 33.7666C260.986 35.085 260.43 36.6084 260.078 38.3369C259.727 40.0361 259.551 41.8525 259.551 43.7861ZM297.695 44.709V43.7861C297.695 40.2998 298.193 37.0918 299.189 34.1621C300.186 31.2031 301.636 28.6396 303.54 26.4717C305.444 24.3037 307.788 22.6191 310.571 21.418C313.354 20.1875 316.548 19.5723 320.151 19.5723C323.755 19.5723 326.963 20.1875 329.775 21.418C332.588 22.6191 334.946 24.3037 336.851 26.4717C338.784 28.6396 340.249 31.2031 341.245 34.1621C342.241 37.0918 342.739 40.2998 342.739 43.7861V44.709C342.739 48.166 342.241 51.374 341.245 54.333C340.249 57.2627 338.784 59.8262 336.851 62.0234C334.946 64.1914 332.603 65.876 329.819 67.0771C327.036 68.2783 323.843 68.8789 320.239 68.8789C316.636 68.8789 313.428 68.2783 310.615 67.0771C307.832 65.876 305.474 64.1914 303.54 62.0234C301.636 59.8262 300.186 57.2627 299.189 54.333C298.193 51.374 297.695 48.166 297.695 44.709ZM310.352 43.7861V44.709C310.352 46.7012 310.527 48.5615 310.879 50.29C311.23 52.0186 311.787 53.542 312.549 54.8604C313.34 56.1494 314.365 57.1602 315.625 57.8926C316.885 58.625 318.423 58.9912 320.239 58.9912C321.997 58.9912 323.506 58.625 324.766 57.8926C326.025 57.1602 327.036 56.1494 327.798 54.8604C328.56 53.542 329.116 52.0186 329.468 50.29C329.849 48.5615 330.039 46.7012 330.039 44.709V43.7861C330.039 41.8525 329.849 40.0361 329.468 38.3369C329.116 36.6084 328.545 35.085 327.754 33.7666C326.992 32.4189 325.981 31.3643 324.722 30.6025C323.462 29.8408 321.938 29.46 320.151 29.46C318.364 29.46 316.841 29.8408 315.581 30.6025C314.351 31.3643 313.34 32.4189 312.549 33.7666C311.787 35.085 311.23 36.6084 310.879 38.3369C310.527 40.0361 310.352 41.8525 310.352 43.7861ZM363.174 0.456055V68H350.518V0.456055H363.174ZM393.145 20.4512L372.49 44.0059L361.416 55.2119L356.802 46.0713L365.591 34.9092L377.939 20.4512H393.145ZM380.005 68L365.942 46.0273L374.688 38.3809L394.595 68H380.005Z" fill="#EAEAEA"/>
</svg>
