<svg width="395" height="69" viewBox="0 0 395 69" fill="none" xmlns="http://www.w3.org/2000/svg">
<path d="M20.3564 68H6.42578L6.51367 57.7168H20.3564C23.8135 57.7168 26.7285 56.9404 29.1016 55.3877C31.4746 53.8057 33.2617 51.5059 34.4629 48.4883C35.6934 45.4707 36.3086 41.8232 36.3086 37.5459V34.4258C36.3086 31.1445 35.957 28.2588 35.2539 25.7686C34.5801 23.2783 33.5693 21.1836 32.2217 19.4844C30.874 17.7852 29.2188 16.5107 27.2559 15.6611C25.293 14.7822 23.0371 14.3428 20.4883 14.3428H6.16211V4.01562H20.4883C24.7656 4.01562 28.6768 4.74805 32.2217 6.21289C35.7959 7.64844 38.8867 9.71387 41.4941 12.4092C44.1016 15.1045 46.1084 18.3271 47.5146 22.0771C48.9502 25.7979 49.668 29.9434 49.668 34.5137V37.5459C49.668 42.0869 48.9502 46.2324 47.5146 49.9824C46.1084 53.7324 44.1016 56.9551 41.4941 59.6504C38.916 62.3164 35.8252 64.3818 32.2217 65.8467C28.6475 67.2822 24.6924 68 20.3564 68ZM13.8965 4.01562V68H0.712891V4.01562H13.8965ZM80.3418 68.8789C76.6504 68.8789 73.3398 68.293 70.4102 67.1211C67.4805 65.9199 64.9902 64.2646 62.9395 62.1553C60.918 60.0459 59.3652 57.5996 58.2812 54.8164C57.1973 52.0039 56.6553 49.0156 56.6553 45.8516V44.0938C56.6553 40.4902 57.168 37.1943 58.1934 34.2061C59.2188 31.2178 60.6836 28.625 62.5879 26.4277C64.5215 24.2305 66.8652 22.5459 69.6191 21.374C72.373 20.1729 75.4785 19.5723 78.9355 19.5723C82.3047 19.5723 85.293 20.1289 87.9004 21.2422C90.5078 22.3555 92.6904 23.9375 94.4482 25.9883C96.2354 28.0391 97.583 30.5 98.4912 33.3711C99.3994 36.2129 99.8535 39.377 99.8535 42.8633V48.1367H62.0605V39.6992H87.417V38.7324C87.417 36.9746 87.0947 35.4072 86.4502 34.0303C85.835 32.624 84.8975 31.5107 83.6377 30.6904C82.3779 29.8701 80.7666 29.46 78.8037 29.46C77.1338 29.46 75.6982 29.8262 74.4971 30.5586C73.2959 31.291 72.3145 32.3164 71.5527 33.6348C70.8203 34.9531 70.2637 36.5059 69.8828 38.293C69.5312 40.0508 69.3555 41.9844 69.3555 44.0938V45.8516C69.3555 47.7559 69.6191 49.5137 70.1465 51.125C70.7031 52.7363 71.4795 54.1279 72.4756 55.2998C73.501 56.4717 74.7314 57.3799 76.167 58.0244C77.6318 58.6689 79.2871 58.9912 81.1328 58.9912C83.418 58.9912 85.542 58.5518 87.5049 57.6729C89.4971 56.7646 91.2109 55.4023 92.6465 53.5859L98.7988 60.2656C97.8027 61.7012 96.4404 63.0781 94.7119 64.3965C93.0127 65.7148 90.9619 66.7988 88.5596 67.6484C86.1572 68.4688 83.418 68.8789 80.3418 68.8789ZM122.617 58.7715L133.164 20.4512H146.392L130.352 68H122.354L122.617 58.7715ZM115.366 20.4512L125.957 58.8154L126.177 68H118.135L102.095 20.4512H115.366ZM177.769 54.8604C177.769 53.9521 177.505 53.1318 176.978 52.3994C176.45 51.667 175.469 50.9932 174.033 50.3779C172.627 49.7334 170.591 49.1475 167.925 48.6201C165.522 48.0928 163.281 47.4336 161.201 46.6426C159.15 45.8223 157.363 44.8408 155.84 43.6982C154.346 42.5557 153.174 41.208 152.324 39.6553C151.475 38.0732 151.05 36.2715 151.05 34.25C151.05 32.2578 151.475 30.3828 152.324 28.625C153.203 26.8672 154.448 25.3145 156.06 23.9668C157.7 22.5898 159.692 21.5205 162.036 20.7588C164.409 19.9678 167.075 19.5723 170.034 19.5723C174.165 19.5723 177.71 20.2314 180.669 21.5498C183.657 22.8682 185.942 24.6846 187.524 26.999C189.136 29.2842 189.941 31.8916 189.941 34.8213H177.285C177.285 33.5908 177.021 32.4922 176.494 31.5254C175.996 30.5293 175.205 29.7529 174.121 29.1963C173.066 28.6104 171.689 28.3174 169.99 28.3174C168.584 28.3174 167.368 28.5664 166.343 29.0645C165.317 29.5332 164.526 30.1777 163.97 30.998C163.442 31.7891 163.179 32.668 163.179 33.6348C163.179 34.3672 163.325 35.0264 163.618 35.6123C163.94 36.1689 164.453 36.6816 165.156 37.1504C165.859 37.6191 166.768 38.0586 167.881 38.4688C169.023 38.8496 170.43 39.2012 172.1 39.5234C175.527 40.2266 178.589 41.1494 181.284 42.292C183.979 43.4053 186.118 44.9287 187.7 46.8623C189.282 48.7666 190.073 51.2715 190.073 54.377C190.073 56.4863 189.604 58.4199 188.667 60.1777C187.729 61.9355 186.382 63.4736 184.624 64.792C182.866 66.0811 180.757 67.0918 178.296 67.8242C175.864 68.5273 173.125 68.8789 170.078 68.8789C165.654 68.8789 161.904 68.0879 158.828 66.5059C155.781 64.9238 153.467 62.917 151.885 60.4854C150.332 58.0244 149.556 55.5049 149.556 52.9268H161.553C161.611 54.6553 162.051 56.0469 162.871 57.1016C163.721 58.1562 164.79 58.918 166.079 59.3867C167.397 59.8555 168.818 60.0898 170.342 60.0898C171.982 60.0898 173.345 59.8701 174.429 59.4307C175.513 58.9619 176.333 58.3467 176.89 57.585C177.476 56.7939 177.769 55.8857 177.769 54.8604ZM198.291 0.5H210.947V57.1016L209.673 68H198.291V0.5ZM241.05 43.7422V44.665C241.05 48.21 240.669 51.4619 239.907 54.4209C239.175 57.3799 238.032 59.9434 236.479 62.1113C234.927 64.25 232.993 65.9199 230.679 67.1211C228.394 68.293 225.698 68.8789 222.593 68.8789C219.692 68.8789 217.173 68.293 215.034 67.1211C212.925 65.9492 211.152 64.2939 209.717 62.1553C208.281 60.0166 207.124 57.5117 206.245 54.6406C205.366 51.7695 204.707 48.6348 204.268 45.2363V43.2148C204.707 39.8164 205.366 36.6816 206.245 33.8105C207.124 30.9395 208.281 28.4346 209.717 26.2959C211.152 24.1572 212.925 22.502 215.034 21.3301C217.144 20.1582 219.634 19.5723 222.505 19.5723C225.64 19.5723 228.364 20.1729 230.679 21.374C233.022 22.5459 234.956 24.2158 236.479 26.3838C238.032 28.5225 239.175 31.0713 239.907 34.0303C240.669 36.96 241.05 40.1973 241.05 43.7422ZM228.394 44.665V43.7422C228.394 41.8086 228.247 39.9922 227.954 38.293C227.69 36.5645 227.222 35.0557 226.548 33.7666C225.874 32.4482 224.951 31.4082 223.779 30.6465C222.637 29.8848 221.157 29.5039 219.341 29.5039C217.612 29.5039 216.147 29.7969 214.946 30.3828C213.745 30.9688 212.749 31.7891 211.958 32.8438C211.196 33.8984 210.625 35.1582 210.244 36.623C209.863 38.0586 209.629 39.6406 209.541 41.3691V47.126C209.629 49.4404 210.01 51.4912 210.684 53.2783C211.387 55.0361 212.441 56.4277 213.848 57.4531C215.283 58.4492 217.144 58.9473 219.429 58.9473C221.216 58.9473 222.695 58.5957 223.867 57.8926C225.039 57.1895 225.947 56.1934 226.592 54.9043C227.266 53.6152 227.734 52.1064 227.998 50.3779C228.262 48.6201 228.394 46.7158 228.394 44.665ZM246.895 44.709V43.7861C246.895 40.2998 247.393 37.0918 248.389 34.1621C249.385 31.2031 250.835 28.6396 252.739 26.4717C254.644 24.3037 256.987 22.6191 259.771 21.418C262.554 20.1875 265.747 19.5723 269.351 19.5723C272.954 19.5723 276.162 20.1875 278.975 21.418C281.787 22.6191 284.146 24.3037 286.05 26.4717C287.983 28.6396 289.448 31.2031 290.444 34.1621C291.44 37.0918 291.938 40.2998 291.938 43.7861V44.709C291.938 48.166 291.44 51.374 290.444 54.333C289.448 57.2627 287.983 59.8262 286.05 62.0234C284.146 64.1914 281.802 65.876 279.019 67.0771C276.235 68.2783 273.042 68.8789 269.438 68.8789C265.835 68.8789 262.627 68.2783 259.814 67.0771C257.031 65.876 254.673 64.1914 252.739 62.0234C250.835 59.8262 249.385 57.2627 248.389 54.333C247.393 51.374 246.895 48.166 246.895 44.709ZM259.551 43.7861V44.709C259.551 46.7012 259.727 48.5615 260.078 50.29C260.43 52.0186 260.986 53.542 261.748 54.8604C262.539 56.1494 263.564 57.1602 264.824 57.8926C266.084 58.625 267.622 58.9912 269.438 58.9912C271.196 58.9912 272.705 58.625 273.965 57.8926C275.225 57.1602 276.235 56.1494 276.997 54.8604C277.759 53.542 278.315 52.0186 278.667 50.29C279.048 48.5615 279.238 46.7012 279.238 44.709V43.7861C279.238 41.8525 279.048 40.0361 278.667 38.3369C278.315 36.6084 277.744 35.085 276.953 33.7666C276.191 32.4189 275.181 31.3643 273.921 30.6025C272.661 29.8408 271.138 29.46 269.351 29.46C267.563 29.46 266.04 29.8408 264.78 30.6025C263.55 31.3643 262.539 32.4189 261.748 33.7666C260.986 35.085 260.43 36.6084 260.078 38.3369C259.727 40.0361 259.551 41.8525 259.551 43.7861ZM297.695 44.709V43.7861C297.695 40.2998 298.193 37.0918 299.189 34.1621C300.186 31.2031 301.636 28.6396 303.54 26.4717C305.444 24.3037 307.788 22.6191 310.571 21.418C313.354 20.1875 316.548 19.5723 320.151 19.5723C323.755 19.5723 326.963 20.1875 329.775 21.418C332.588 22.6191 334.946 24.3037 336.851 26.4717C338.784 28.6396 340.249 31.2031 341.245 34.1621C342.241 37.0918 342.739 40.2998 342.739 43.7861V44.709C342.739 48.166 342.241 51.374 341.245 54.333C340.249 57.2627 338.784 59.8262 336.851 62.0234C334.946 64.1914 332.603 65.876 329.819 67.0771C327.036 68.2783 323.843 68.8789 320.239 68.8789C316.636 68.8789 313.428 68.2783 310.615 67.0771C307.832 65.876 305.474 64.1914 303.54 62.0234C301.636 59.8262 300.186 57.2627 299.189 54.333C298.193 51.374 297.695 48.166 297.695 44.709ZM310.352 43.7861V44.709C310.352 46.7012 310.527 48.5615 310.879 50.29C311.23 52.0186 311.787 53.542 312.549 54.8604C313.34 56.1494 314.365 57.1602 315.625 57.8926C316.885 58.625 318.423 58.9912 320.239 58.9912C321.997 58.9912 323.506 58.625 324.766 57.8926C326.025 57.1602 327.036 56.1494 327.798 54.8604C328.56 53.542 329.116 52.0186 329.468 50.29C329.849 48.5615 330.039 46.7012 330.039 44.709V43.7861C330.039 41.8525 329.849 40.0361 329.468 38.3369C329.116 36.6084 328.545 35.085 327.754 33.7666C326.992 32.4189 325.981 31.3643 324.722 30.6025C323.462 29.8408 321.938 29.46 320.151 29.46C318.364 29.46 316.841 29.8408 315.581 30.6025C314.351 31.3643 313.34 32.4189 312.549 33.7666C311.787 35.085 311.23 36.6084 310.879 38.3369C310.527 40.0361 310.352 41.8525 310.352 43.7861ZM363.174 0.456055V68H350.518V0.456055H363.174ZM393.145 20.4512L372.49 44.0059L361.416 55.2119L356.802 46.0713L365.591 34.9092L377.939 20.4512H393.145ZM380.005 68L365.942 46.0273L374.688 38.3809L394.595 68H380.005Z" fill="#EAEAEA"/>
<path d="M6.42578 68L5.42582 67.9915L5.4172 69H6.42578V68ZM6.51367 57.7168V56.7168H5.52218L5.51371 57.7083L6.51367 57.7168ZM29.1016 55.3877L29.6491 56.2245L29.6563 56.2197L29.1016 55.3877ZM34.4629 48.4883L33.5369 48.1107L33.5338 48.1184L34.4629 48.4883ZM35.2539 25.7686L34.2886 26.0298L34.2915 26.0403L35.2539 25.7686ZM27.2559 15.6611L26.8472 16.5739L26.8586 16.5789L27.2559 15.6611ZM6.16211 14.3428H5.16211V15.3428H6.16211V14.3428ZM6.16211 4.01562V3.01562H5.16211V4.01562H6.16211ZM32.2217 6.21289L31.8398 7.13714L31.849 7.14084L32.2217 6.21289ZM47.5146 22.0771L46.5783 22.4283L46.5817 22.4371L47.5146 22.0771ZM47.5146 49.9824L46.5807 49.6249L46.5783 49.6313L47.5146 49.9824ZM41.4941 59.6504L40.7754 58.9551L40.7753 58.9552L41.4941 59.6504ZM32.2217 65.8467L32.5944 66.7746L32.5983 66.7731L32.2217 65.8467ZM13.8965 4.01562H14.8965V3.01562H13.8965V4.01562ZM13.8965 68V69H14.8965V68H13.8965ZM0.712891 68H-0.287109V69H0.712891V68ZM0.712891 4.01562V3.01562H-0.287109V4.01562H0.712891ZM20.3564 67H6.42578V69H20.3564V67ZM7.42575 68.0085L7.51364 57.7253L5.51371 57.7083L5.42582 67.9915L7.42575 68.0085ZM6.51367 58.7168H20.3564V56.7168H6.51367V58.7168ZM20.3564 58.7168C23.965 58.7168 27.0807 57.905 29.6491 56.2245L28.554 54.5509C26.3763 55.9758 23.6619 56.7168 20.3564 56.7168V58.7168ZM29.6563 56.2197C32.2208 54.51 34.1266 52.0371 35.392 48.8581L33.5338 48.1184C32.3969 50.9746 30.7284 53.1013 28.5469 54.5556L29.6563 56.2197ZM35.3889 48.8659C36.6809 45.6973 37.3086 41.9143 37.3086 37.5459H35.3086C35.3086 41.7322 34.7058 45.2441 33.5369 48.1107L35.3889 48.8659ZM37.3086 37.5459V34.4258H35.3086V37.5459H37.3086ZM37.3086 34.4258C37.3086 31.076 36.95 28.0954 36.2163 25.4968L34.2915 26.0403C34.9641 28.4222 35.3086 31.2131 35.3086 34.4258H37.3086ZM36.2192 25.5074C35.5165 22.9104 34.4517 20.6869 33.0052 18.863L31.4382 20.1058C32.687 21.6803 33.6437 23.6462 34.2886 26.0297L36.2192 25.5074ZM33.0052 18.863C31.5566 17.0366 29.7694 15.6594 27.6531 14.7434L26.8586 16.5789C28.6681 17.3621 30.1914 18.5338 31.4382 20.1058L33.0052 18.863ZM27.6645 14.7484C25.5515 13.8023 23.1522 13.3428 20.4883 13.3428V15.3428C22.922 15.3428 25.0344 15.7621 26.8472 16.5738L27.6645 14.7484ZM20.4883 13.3428H6.16211V15.3428H20.4883V13.3428ZM7.16211 14.3428V4.01562H5.16211V14.3428H7.16211ZM6.16211 5.01562H20.4883V3.01562H6.16211V5.01562ZM20.4883 5.01562C24.6497 5.01562 28.4292 5.72775 31.8398 7.13709L32.6036 5.28869C28.9244 3.76834 24.8816 3.01562 20.4883 3.01562V5.01562ZM31.849 7.14084C35.2964 8.52547 38.2684 10.5129 40.7754 13.1045L42.2129 11.7139C39.5051 8.9148 36.2954 6.77141 32.5944 5.28494L31.849 7.14084ZM40.7754 13.1045C43.2811 15.6946 45.2169 18.7978 46.5783 22.4283L48.451 21.726C46.9999 17.8565 44.922 14.5144 42.2129 11.7139L40.7754 13.1045ZM46.5817 22.4371C47.9669 26.0275 48.668 30.0487 48.668 34.5137H50.668C50.668 29.838 49.9334 25.5682 48.4476 21.7172L46.5817 22.4371ZM48.668 34.5137V37.5459H50.668V34.5137H48.668ZM48.668 37.5459C48.668 41.9806 47.9673 46.003 46.5807 49.6249L48.4486 50.3399C49.9331 46.4619 50.668 42.1933 50.668 37.5459H48.668ZM46.5783 49.6313C45.2169 53.2617 43.2811 56.365 40.7754 58.9551L42.2129 60.3457C44.922 57.5452 46.9999 54.2031 48.451 50.3335L46.5783 49.6313ZM40.7753 58.9552C38.2986 61.5163 35.3261 63.5053 31.8451 64.9203L32.5983 66.7731C36.3243 65.2584 39.5334 63.1165 42.213 60.3456L40.7753 58.9552ZM31.849 64.9187C28.4072 66.3011 24.5807 67 20.3564 67V69C24.8041 69 28.8877 68.2634 32.5944 66.7746L31.849 64.9187ZM12.8965 4.01562V68H14.8965V4.01562H12.8965ZM13.8965 67H0.712891V69H13.8965V67ZM1.71289 68V4.01562H-0.287109V68H1.71289ZM0.712891 5.01562H13.8965V3.01562H0.712891V5.01562ZM70.4102 67.1211L70.0308 68.0464L70.0388 68.0496L70.4102 67.1211ZM62.9395 62.1553L62.2174 62.8472L62.2225 62.8524L62.9395 62.1553ZM58.2812 54.8164L57.3481 55.176L57.3494 55.1793L58.2812 54.8164ZM62.5879 26.4277L61.8372 25.7671L61.8322 25.7728L62.5879 26.4277ZM69.6191 21.374L70.0107 22.2942L70.0189 22.2906L69.6191 21.374ZM94.4482 25.9883L93.689 26.6391L93.6943 26.6453L94.4482 25.9883ZM98.4912 33.3711L97.5378 33.6727L97.5387 33.6755L98.4912 33.3711ZM99.8535 48.1367V49.1367H100.854V48.1367H99.8535ZM62.0605 48.1367H61.0605V49.1367H62.0605V48.1367ZM62.0605 39.6992V38.6992H61.0605V39.6992H62.0605ZM87.417 39.6992V40.6992H88.417V39.6992H87.417ZM86.4502 34.0303L85.534 34.4311L85.5391 34.4427L85.5445 34.4542L86.4502 34.0303ZM71.5527 33.6348L70.6869 33.1345L70.6827 33.1418L70.6786 33.1491L71.5527 33.6348ZM69.8828 38.293L68.9047 38.0845L68.9022 38.0969L69.8828 38.293ZM70.1465 51.125L69.1961 51.436L69.1986 51.4438L69.2013 51.4515L70.1465 51.125ZM72.4756 55.2998L71.7136 55.9475L71.7183 55.9529L71.723 55.9583L72.4756 55.2998ZM76.167 58.0244L75.7574 58.9367L75.7643 58.9397L76.167 58.0244ZM87.5049 57.6729L87.9136 58.5856L87.9197 58.5828L87.5049 57.6729ZM92.6465 53.5859L93.382 52.9085L92.5883 52.0467L91.8619 52.9659L92.6465 53.5859ZM98.7988 60.2656L99.6204 60.8357L100.077 60.1775L99.5344 59.5882L98.7988 60.2656ZM94.7119 64.3965L94.1054 63.6013L94.0989 63.6064L94.7119 64.3965ZM88.5596 67.6484L88.8827 68.5948L88.893 68.5912L88.5596 67.6484ZM80.3418 67.8789C76.7563 67.8789 73.5749 67.3099 70.7815 66.1926L70.0388 68.0496C73.1048 69.276 76.5444 69.8789 80.3418 69.8789V67.8789ZM70.7895 66.1958C67.977 65.0427 65.6044 63.4618 63.6564 61.4582L62.2225 62.8524C64.3761 65.0675 66.9839 66.7971 70.0308 68.0463L70.7895 66.1958ZM63.6614 61.4634C61.7329 59.451 60.2505 57.1171 59.2131 54.4535L57.3494 55.1793C58.48 58.0821 60.1031 60.6408 62.2175 62.8472L63.6614 61.4634ZM59.2143 54.4568C58.1768 51.7647 57.6553 48.8988 57.6553 45.8516H55.6553C55.6553 49.1324 56.2178 52.2431 57.3482 55.176L59.2143 54.4568ZM57.6553 45.8516V44.0938H55.6553V45.8516H57.6553ZM57.6553 44.0938C57.6553 40.5854 58.1543 37.4009 59.1392 34.5306L57.2475 33.8815C56.1816 36.9878 55.6553 40.3951 55.6553 44.0938H57.6553ZM59.1392 34.5306C60.1266 31.6531 61.5303 29.1749 63.3436 27.0827L61.8322 25.7728C59.8369 28.0751 58.3109 30.7825 57.2475 33.8815L59.1392 34.5306ZM63.3386 27.0884C65.1711 25.006 67.3912 23.4089 70.0107 22.2942L69.2276 20.4539C66.3393 21.6829 63.8718 23.455 61.8372 25.7671L63.3386 27.0884ZM70.0189 22.2906C72.6291 21.1521 75.5955 20.5723 78.9355 20.5723V18.5723C75.3615 18.5723 72.117 19.1936 69.2193 20.4574L70.0189 22.2906ZM78.9355 20.5723C82.1947 20.5723 85.0455 21.1106 87.5077 22.1619L88.2931 20.3225C85.5404 19.1472 82.4147 18.5723 78.9355 18.5723V20.5723ZM87.5077 22.1619C89.9811 23.2179 92.0361 24.7107 93.689 26.6391L95.2075 25.3375C93.3448 23.1643 91.0345 21.493 88.2931 20.3225L87.5077 22.1619ZM93.6943 26.6453C95.382 28.582 96.6665 30.9184 97.5378 33.6727L99.4446 33.0695C98.4995 30.0816 97.0887 27.4962 95.2021 25.3313L93.6943 26.6453ZM97.5387 33.6755C98.4106 36.4039 98.8535 39.4633 98.8535 42.8633H100.854C100.854 39.2906 100.388 36.0219 99.4437 33.0667L97.5387 33.6755ZM98.8535 42.8633V48.1367H100.854V42.8633H98.8535ZM99.8535 47.1367H62.0605V49.1367H99.8535V47.1367ZM63.0605 48.1367V39.6992H61.0605V48.1367H63.0605ZM62.0605 40.6992H87.417V38.6992H62.0605V40.6992ZM88.417 39.6992V38.7324H86.417V39.6992H88.417ZM88.417 38.7324C88.417 36.8509 88.0715 35.1352 87.3559 33.6063L85.5445 34.4542C86.1179 35.6793 86.417 37.0983 86.417 38.7324H88.417ZM87.3664 33.6295C86.6747 32.0484 85.6102 30.7816 84.1834 29.8524L83.092 31.5284C84.1847 32.2399 84.9953 33.1996 85.534 34.4311L87.3664 33.6295ZM84.1834 29.8524C82.7184 28.8985 80.902 28.46 78.8037 28.46V30.46C80.6312 30.46 82.0374 30.8417 83.092 31.5284L84.1834 29.8524ZM78.8037 28.46C76.9848 28.46 75.3616 28.8602 73.9765 29.7048L75.0177 31.4124C76.0349 30.7922 77.2828 30.46 78.8037 30.46V28.46ZM73.9765 29.7048C72.6208 30.5314 71.5252 31.6835 70.6869 33.1345L72.4186 34.135C73.1037 32.9493 73.971 32.0506 75.0177 31.4124L73.9765 29.7048ZM70.6786 33.1491C69.889 34.5703 69.3021 36.2202 68.9048 38.0845L70.8608 38.5014C71.2252 36.7916 71.7516 35.336 72.4269 34.1204L70.6786 33.1491ZM68.9022 38.0969C68.5357 39.9294 68.3555 41.9297 68.3555 44.0938H70.3555C70.3555 42.039 70.5268 40.1722 70.8634 38.4891L68.9022 38.0969ZM68.3555 44.0938V45.8516H70.3555V44.0938H68.3555ZM68.3555 45.8516C68.3555 47.8487 68.6321 49.7128 69.1961 51.436L71.0969 50.814C70.6062 49.3146 70.3555 47.6631 70.3555 45.8516H68.3555ZM69.2013 51.4515C69.7941 53.1676 70.6288 54.6711 71.7136 55.9475L73.2375 54.6522C72.3302 53.5847 71.6121 52.305 71.0917 50.7985L69.2013 51.4515ZM71.723 55.9583C72.8442 57.2396 74.192 58.2339 75.7574 58.9367L76.5766 57.1121C75.2709 56.5259 74.1578 55.7037 73.2282 54.6413L71.723 55.9583ZM75.7643 58.9397C77.374 59.648 79.1696 59.9912 81.1328 59.9912V57.9912C79.4047 57.9912 77.8896 57.6899 76.5697 57.1091L75.7643 58.9397ZM81.1328 59.9912C83.5499 59.9912 85.8142 59.5256 87.9136 58.5855L87.0962 56.7602C85.2698 57.578 83.2861 57.9912 81.1328 57.9912V59.9912ZM87.9197 58.5828C90.0647 57.6049 91.9028 56.1396 93.431 54.206L91.8619 52.9659C90.519 54.665 88.9294 55.9244 87.0901 56.7629L87.9197 58.5828ZM91.9109 54.2634L98.0633 60.9431L99.5344 59.5882L93.382 52.9085L91.9109 54.2634ZM97.9772 59.6955C97.0531 61.0273 95.7704 62.3315 94.1055 63.6014L95.3184 65.1916C97.1105 63.8247 98.5523 62.375 99.6204 60.8357L97.9772 59.6955ZM94.0989 63.6064C92.4981 64.8484 90.5459 65.8853 88.2262 66.7057L88.893 68.5912C91.378 67.7124 93.5273 66.5813 95.3249 65.1866L94.0989 63.6064ZM88.2364 66.7021C85.9575 67.4803 83.3306 67.8789 80.3418 67.8789V69.8789C83.5054 69.8789 86.357 69.4572 88.8827 68.5948L88.2364 66.7021ZM122.617 58.7715L121.653 58.5061L121.621 58.6224L121.618 58.7429L122.617 58.7715ZM133.164 20.4512V19.4512H132.402L132.2 20.1858L133.164 20.4512ZM146.392 20.4512L147.339 20.7708L147.784 19.4512H146.392V20.4512ZM130.352 68V69H131.07L131.299 68.3196L130.352 68ZM122.354 68L121.354 67.9714L121.325 69H122.354V68ZM115.366 20.4512L116.33 20.1851L116.128 19.4512H115.366V20.4512ZM125.957 58.8154L126.957 58.7915L126.954 58.6682L126.921 58.5493L125.957 58.8154ZM126.177 68V69H127.201L127.176 67.9761L126.177 68ZM118.135 68L117.187 68.3196L117.417 69H118.135V68ZM102.095 20.4512V19.4512H100.702L101.147 20.7708L102.095 20.4512ZM123.581 59.0368L134.128 20.7165L132.2 20.1858L121.653 58.5061L123.581 59.0368ZM133.164 21.4512H146.392V19.4512H133.164V21.4512ZM145.444 20.1315L129.404 67.6804L131.299 68.3196L147.339 20.7708L145.444 20.1315ZM130.352 67H122.354V69H130.352V67ZM123.353 68.0286L123.617 58.8L121.618 58.7429L121.354 67.9714L123.353 68.0286ZM114.402 20.7173L124.993 59.0815L126.921 58.5493L116.33 20.1851L114.402 20.7173ZM124.957 58.8393L125.177 68.0239L127.176 67.9761L126.957 58.7915L124.957 58.8393ZM126.177 67H118.135V69H126.177V67ZM119.082 67.6804L103.042 20.1315L101.147 20.7708L117.187 68.3196L119.082 67.6804ZM102.095 21.4512H115.366V19.4512H102.095V21.4512ZM174.033 50.3779L173.617 51.287L173.628 51.2922L173.639 51.2971L174.033 50.3779ZM167.925 48.6201L167.71 49.5969L167.721 49.5991L167.731 49.6011L167.925 48.6201ZM161.201 46.6426L160.83 47.5711L160.838 47.5742L160.846 47.5773L161.201 46.6426ZM155.84 43.6982L155.232 44.4926L155.24 44.4982L155.84 43.6982ZM152.324 39.6553L151.443 40.1284L151.447 40.1353L152.324 39.6553ZM152.324 28.625L151.43 28.1777L151.424 28.1898L152.324 28.625ZM156.06 23.9668L156.701 24.7339L156.702 24.7328L156.06 23.9668ZM162.036 20.7588L162.345 21.7099L162.352 21.7075L162.036 20.7588ZM180.669 21.5498L180.262 22.4632L180.265 22.4647L180.669 21.5498ZM187.524 26.999L186.699 27.5633L186.703 27.5693L186.707 27.5753L187.524 26.999ZM189.941 34.8213V35.8213H190.941V34.8213H189.941ZM177.285 34.8213H176.285V35.8213H177.285V34.8213ZM176.494 31.5254L175.6 31.9726L175.608 31.9886L175.616 32.0042L176.494 31.5254ZM174.121 29.1963L173.635 30.0704L173.65 30.0784L173.664 30.0859L174.121 29.1963ZM166.343 29.0645L166.759 29.9739L166.769 29.9691L166.78 29.964L166.343 29.0645ZM163.97 30.998L163.142 30.4365L163.138 30.4433L163.97 30.998ZM163.618 35.6123L162.724 36.0595L162.737 36.0869L162.753 36.1133L163.618 35.6123ZM167.881 38.4688L167.535 39.4071L167.55 39.4125L167.565 39.4174L167.881 38.4688ZM172.1 39.5234L172.301 38.5438L172.289 38.5416L172.1 39.5234ZM181.284 42.292L180.894 43.2127L180.902 43.2163L181.284 42.292ZM187.7 46.8623L186.926 47.4956L186.931 47.5013L187.7 46.8623ZM184.624 64.792L185.215 65.5984L185.224 65.592L184.624 64.792ZM178.296 67.8242L178.574 68.7849L178.581 68.7827L178.296 67.8242ZM158.828 66.5059L158.367 67.3934L158.371 67.3951L158.828 66.5059ZM151.885 60.4854L151.039 61.019L151.047 61.0307L151.885 60.4854ZM149.556 52.9268V51.9268H148.556V52.9268H149.556ZM161.553 52.9268L162.552 52.8929L162.519 51.9268H161.553V52.9268ZM162.871 57.1016L162.082 57.7155L162.087 57.7222L162.092 57.7289L162.871 57.1016ZM166.079 59.3867L165.737 60.3265L165.744 60.3289L166.079 59.3867ZM174.429 59.4307L174.804 60.3574L174.815 60.3531L174.826 60.3485L174.429 59.4307ZM176.89 57.585L176.086 56.9897L176.082 56.9949L176.89 57.585ZM178.769 54.8604C178.769 53.7439 178.44 52.7189 177.789 51.8151L176.166 52.9837C176.57 53.5448 176.769 54.1604 176.769 54.8604H178.769ZM177.789 51.8151C177.104 50.8631 175.923 50.0998 174.427 49.4588L173.639 51.2971C175.015 51.8865 175.797 52.4709 176.166 52.9837L177.789 51.8151ZM174.45 49.4689C172.938 48.7761 170.813 48.1721 168.119 47.6391L167.731 49.6011C170.368 50.1228 172.315 50.6907 173.617 51.287L174.45 49.4689ZM168.139 47.6434C165.78 47.1255 163.586 46.4797 161.557 45.7079L160.846 47.5773C162.976 48.3875 165.265 49.0601 167.71 49.5969L168.139 47.6434ZM161.573 45.7141C159.591 44.9213 157.883 43.9805 156.44 42.8982L155.24 44.4982C156.844 45.7011 158.71 46.7232 160.83 47.5711L161.573 45.7141ZM156.447 42.9039C155.057 41.8407 153.98 40.598 153.201 39.1753L151.447 40.1353C152.368 41.8181 153.634 43.2706 155.232 44.4926L156.447 42.9039ZM153.205 39.1821C152.443 37.7631 152.05 36.1274 152.05 34.25H150.05C150.05 36.4155 150.506 38.3834 151.443 40.1284L153.205 39.1821ZM152.05 34.25C152.05 32.4053 152.442 30.6795 153.225 29.0602L151.424 28.1898C150.507 30.0862 150.05 32.1103 150.05 34.25H152.05ZM153.219 29.0722C154.032 27.4456 155.188 25.9996 156.701 24.7339L155.418 23.1997C153.709 24.6293 152.374 26.2888 151.43 28.1778L153.219 29.0722ZM156.702 24.7328C158.231 23.4498 160.105 22.4378 162.345 21.7098L161.727 19.8078C159.279 20.6032 157.169 21.7299 155.417 23.2008L156.702 24.7328ZM162.352 21.7075C164.607 20.956 167.164 20.5723 170.034 20.5723V18.5723C166.987 18.5723 164.212 18.9795 161.72 19.8101L162.352 21.7075ZM170.034 20.5723C174.062 20.5723 177.461 21.2154 180.262 22.4632L181.076 20.6364C177.959 19.2475 174.268 18.5723 170.034 18.5723V20.5723ZM180.265 22.4647C183.112 23.7205 185.238 25.4267 186.699 27.5633L188.35 26.4347C186.646 23.9424 184.203 22.0159 181.073 20.6349L180.265 22.4647ZM186.707 27.5753C188.194 29.6835 188.941 32.0875 188.941 34.8213H190.941C190.941 31.6957 190.078 28.8849 188.342 26.4228L186.707 27.5753ZM189.941 33.8213H177.285V35.8213H189.941V33.8213ZM178.285 34.8213C178.285 33.4435 177.989 32.1768 177.372 31.0465L175.616 32.0042C176.054 32.8076 176.285 33.7382 176.285 34.8213H178.285ZM177.389 31.0782C176.786 29.8738 175.832 28.9509 174.578 28.3067L173.664 30.0859C174.578 30.555 175.206 31.1848 175.6 31.9726L177.389 31.0782ZM174.607 28.3221C173.355 27.6268 171.794 27.3174 169.99 27.3174V29.3174C171.585 29.3174 172.778 29.5939 173.635 30.0704L174.607 28.3221ZM169.99 27.3174C168.467 27.3174 167.095 27.5871 165.906 28.1649L166.78 29.964C167.641 29.5457 168.701 29.3174 169.99 29.3174V27.3174ZM165.927 28.155C164.758 28.6892 163.815 29.4448 163.142 30.4365L164.797 31.5595C165.238 30.9107 165.876 30.3772 166.759 29.9739L165.927 28.155ZM163.138 30.4433C162.499 31.4016 162.179 32.4741 162.179 33.6348H164.179C164.179 32.8618 164.386 32.1766 164.802 31.5527L163.138 30.4433ZM162.179 33.6348C162.179 34.5039 162.354 35.3191 162.724 36.0595L164.513 35.1651C164.297 34.7337 164.179 34.2305 164.179 33.6348H162.179ZM162.753 36.1133C163.172 36.8376 163.809 37.4543 164.602 37.9824L165.711 36.3183C165.097 35.909 164.709 35.5003 164.484 35.1113L162.753 36.1133ZM164.602 37.9824C165.39 38.5082 166.375 38.9798 167.535 39.4071L168.227 37.5304C167.16 37.1374 166.329 36.7301 165.711 36.3183L164.602 37.9824ZM167.565 39.4174C168.762 39.8165 170.213 40.1779 171.91 40.5053L172.289 38.5416C170.646 38.2245 169.285 37.8828 168.197 37.5201L167.565 39.4174ZM171.899 40.503C175.274 41.1953 178.27 42.1004 180.894 43.2127L181.674 41.3713C178.908 40.1984 175.781 39.2578 172.301 38.5438L171.899 40.503ZM180.902 43.2163C183.471 44.277 185.465 45.7098 186.926 47.4955L188.474 46.2291C186.771 44.1477 184.488 42.5335 181.666 41.3677L180.902 43.2163ZM186.931 47.5013C188.329 49.1842 189.073 51.4439 189.073 54.377H191.073C191.073 51.0991 190.235 48.349 188.469 46.2233L186.931 47.5013ZM189.073 54.377C189.073 56.3321 188.64 58.1027 187.785 59.7071L189.549 60.6483C190.569 58.7371 191.073 56.6405 191.073 54.377H189.073ZM187.785 59.7071C186.923 61.323 185.677 62.7523 184.024 63.992L185.224 65.592C187.087 64.1949 188.536 62.5481 189.549 60.6483L187.785 59.7071ZM184.033 63.9856C182.382 65.1959 180.381 66.1604 178.011 66.8658L178.581 68.7827C181.133 68.0232 183.35 66.9662 185.215 65.5984L184.033 63.9856ZM178.018 66.8636C175.693 67.5359 173.049 67.8789 170.078 67.8789V69.8789C173.201 69.8789 176.036 69.5188 178.574 68.7849L178.018 66.8636ZM170.078 67.8789C165.77 67.8789 162.186 67.1084 159.285 65.6166L158.371 67.3951C161.622 69.0674 165.538 69.8789 170.078 69.8789V67.8789ZM159.289 65.6184C156.367 64.1012 154.195 62.2024 152.723 59.94L151.047 61.0307C152.739 63.6315 155.195 65.7464 158.367 67.3934L159.289 65.6184ZM152.73 59.9517C151.265 57.6294 150.556 55.2925 150.556 52.9268H148.556C148.556 55.7173 149.399 58.4194 151.039 61.019L152.73 59.9517ZM149.556 53.9268H161.553V51.9268H149.556V53.9268ZM160.553 52.9606C160.617 54.8378 161.099 56.4514 162.082 57.7155L163.66 56.4876C163.003 55.6424 162.606 54.4727 162.552 52.8929L160.553 52.9606ZM162.092 57.7289C163.058 58.9276 164.279 59.7963 165.737 60.3265L166.421 58.4469C165.301 58.0397 164.383 57.3849 163.65 56.4742L162.092 57.7289ZM165.744 60.3289C167.179 60.8392 168.714 61.0898 170.342 61.0898V59.0898C168.922 59.0898 167.616 58.8718 166.414 58.4445L165.744 60.3289ZM170.342 61.0898C172.063 61.0898 173.563 60.8605 174.804 60.3574L174.053 58.5039C173.126 58.8797 171.902 59.0898 170.342 59.0898V61.0898ZM174.826 60.3485C176.032 59.8266 177.012 59.1127 177.697 58.175L176.082 56.9949C175.654 57.5807 174.993 58.0972 174.032 58.5128L174.826 60.3485ZM177.693 58.1802C178.412 57.2094 178.769 56.0905 178.769 54.8604H176.769C176.769 55.681 176.539 56.3785 176.086 56.9897L177.693 58.1802ZM198.291 0.5V-0.5H197.291V0.5H198.291ZM210.947 0.5H211.947V-0.5H210.947V0.5ZM210.947 57.1016L211.94 57.2177L211.947 57.1598V57.1016H210.947ZM209.673 68V69H210.563L210.666 68.1161L209.673 68ZM198.291 68H197.291V69H198.291V68ZM239.907 54.4209L238.939 54.1716L238.937 54.1806L239.907 54.4209ZM236.479 62.1113L237.289 62.6989L237.292 62.6936L236.479 62.1113ZM230.679 67.1211L231.135 68.0109L231.139 68.0087L230.679 67.1211ZM215.034 67.1211L214.549 67.9953L214.554 67.9981L215.034 67.1211ZM204.268 45.2363H203.268V45.3007L203.276 45.3646L204.268 45.2363ZM204.268 43.2148L203.276 43.0866L203.268 43.1505V43.2148H204.268ZM230.679 21.374L230.218 22.2616L230.225 22.2651L230.231 22.2684L230.679 21.374ZM236.479 26.3838L235.661 26.9587L235.666 26.9651L235.67 26.9713L236.479 26.3838ZM239.907 34.0303L238.936 34.2706L238.939 34.2819L239.907 34.0303ZM227.954 38.293L226.966 38.4438L226.967 38.4533L226.969 38.4629L227.954 38.293ZM226.548 33.7666L225.657 34.2217L225.662 34.2299L226.548 33.7666ZM223.779 30.6465L223.225 31.4786L223.234 31.4849L223.779 30.6465ZM211.958 32.8438L211.158 32.2437L211.153 32.251L211.147 32.2583L211.958 32.8438ZM210.244 36.623L211.211 36.8795L211.212 36.8747L210.244 36.623ZM209.541 41.3691L208.542 41.3184L208.541 41.3437V41.3691H209.541ZM209.541 47.126H208.541V47.145L208.542 47.1639L209.541 47.126ZM210.684 53.2783L209.748 53.6311L209.751 53.6405L209.755 53.6497L210.684 53.2783ZM213.848 57.4531L213.258 58.2611L213.268 58.268L213.278 58.2747L213.848 57.4531ZM226.592 54.9043L225.706 54.441L225.701 54.449L225.697 54.4571L226.592 54.9043ZM227.998 50.3779L228.987 50.5287L228.987 50.5263L227.998 50.3779ZM198.291 1.5H210.947V-0.5H198.291V1.5ZM209.947 0.5V57.1016H211.947V0.5H209.947ZM209.954 56.9854L208.68 67.8839L210.666 68.1161L211.94 57.2177L209.954 56.9854ZM209.673 67H198.291V69H209.673V67ZM199.291 68V0.5H197.291V68H199.291ZM240.05 43.7422V44.665H242.05V43.7422H240.05ZM240.05 44.665C240.05 48.139 239.677 51.3058 238.939 54.1716L240.876 54.6702C241.661 51.618 242.05 48.281 242.05 44.665H240.05ZM238.937 54.1806C238.23 57.0341 237.136 59.4777 235.667 61.5291L237.292 62.6936C238.929 60.409 240.119 57.7257 240.878 54.6612L238.937 54.1806ZM235.67 61.5238C234.208 63.5385 232.393 65.1049 230.218 66.2335L231.139 68.0087C233.594 66.7349 235.646 64.9615 237.289 62.6988L235.67 61.5238ZM230.222 66.2313C228.105 67.3171 225.572 67.8789 222.593 67.8789V69.8789C225.824 69.8789 228.682 69.2688 231.135 68.0109L230.222 66.2313ZM222.593 67.8789C219.829 67.8789 217.481 67.3213 215.515 66.2441L214.554 67.9981C216.865 69.2647 219.556 69.8789 222.593 69.8789V67.8789ZM215.52 66.2469C213.558 65.1571 211.901 63.6143 210.547 61.5979L208.887 62.7126C210.404 64.9736 212.292 66.7414 214.549 67.9953L215.52 66.2469ZM210.547 61.5979C209.174 59.553 208.056 57.1403 207.201 54.3479L205.289 54.9333C206.192 57.8832 207.388 60.4802 208.887 62.7126L210.547 61.5979ZM207.201 54.3479C206.341 51.5374 205.693 48.4584 205.259 45.1081L203.276 45.3646C203.722 48.8111 204.391 52.0016 205.289 54.9333L207.201 54.3479ZM205.268 45.2363V43.2148H203.268V45.2363H205.268ZM205.259 43.3431C205.693 39.9927 206.341 36.9137 207.201 34.1033L205.289 33.5178C204.391 36.4495 203.722 39.6401 203.276 43.0866L205.259 43.3431ZM207.201 34.1033C208.056 31.3109 209.174 28.8982 210.547 26.8532L208.887 25.7386C207.388 27.971 206.192 30.568 205.289 33.5178L207.201 34.1033ZM210.547 26.8532C211.901 24.8369 213.558 23.2941 215.52 22.2042L214.549 20.4559C212.292 21.7098 210.404 23.4776 208.887 25.7386L210.547 26.8532ZM215.52 22.2042C217.455 21.1293 219.771 20.5723 222.505 20.5723V18.5723C219.496 18.5723 216.832 19.1871 214.549 20.4559L215.52 22.2042ZM222.505 20.5723C225.511 20.5723 228.072 21.1478 230.218 22.2616L231.139 20.4864C228.657 19.1979 225.768 18.5723 222.505 18.5723V20.5723ZM230.231 22.2684C232.425 23.3654 234.232 24.9248 235.661 26.9587L237.298 25.8088C235.68 23.5069 233.62 21.7264 231.126 20.4796L230.231 22.2684ZM235.67 26.9713C237.137 28.991 238.23 31.4177 238.937 34.2705L240.878 33.79C240.119 30.7249 238.928 28.0539 237.289 25.7963L235.67 26.9713ZM238.939 34.2819C239.676 37.1168 240.05 40.2681 240.05 43.7422H242.05C242.05 40.1264 241.661 36.8031 240.875 33.7786L238.939 34.2819ZM229.394 44.665V43.7422H227.394V44.665H229.394ZM229.394 43.7422C229.394 41.7584 229.243 39.8847 228.94 38.1231L226.969 38.4629C227.251 40.0997 227.394 41.8588 227.394 43.7422H229.394ZM228.943 38.1422C228.666 36.3259 228.168 34.7077 227.434 33.3033L225.662 34.2299C226.275 35.4036 226.715 36.803 226.966 38.4438L228.943 38.1422ZM227.438 33.3115C226.69 31.8469 225.652 30.6708 224.324 29.808L223.234 31.4849C224.251 32.1456 225.058 33.0496 225.657 34.2217L227.438 33.3115ZM224.334 29.8144C222.982 28.913 221.292 28.5039 219.341 28.5039V30.5039C221.022 30.5039 222.292 30.8566 223.225 31.4785L224.334 29.8144ZM219.341 28.5039C217.503 28.5039 215.88 28.8149 214.508 29.484L215.385 31.2816C216.415 30.7788 217.721 30.5039 219.341 30.5039V28.5039ZM214.508 29.484C213.166 30.1385 212.046 31.0604 211.158 32.2437L212.758 33.4438C213.453 32.5177 214.324 31.799 215.385 31.2816L214.508 29.484ZM211.147 32.2583C210.302 33.4285 209.683 34.8058 209.276 36.3714L211.212 36.8747C211.567 35.5106 212.09 34.3684 212.769 33.4292L211.147 32.2583ZM209.278 36.3666C208.876 37.8794 208.633 39.5315 208.542 41.3184L210.54 41.4199C210.625 39.7498 210.85 38.2378 211.211 36.8795L209.278 36.3666ZM208.541 41.3691V47.126H210.541V41.3691H208.541ZM208.542 47.1639C208.633 49.5639 209.029 51.7244 209.748 53.6311L211.619 52.9255C210.991 51.2581 210.625 49.3169 210.54 47.088L208.542 47.1639ZM209.755 53.6497C210.522 55.5661 211.687 57.1153 213.258 58.2611L214.437 56.6451C213.196 55.7402 212.252 54.5061 211.612 52.9069L209.755 53.6497ZM213.278 58.2747C214.925 59.418 217.002 59.9473 219.429 59.9473V57.9473C217.285 57.9473 215.641 57.4805 214.418 56.6315L213.278 58.2747ZM219.429 59.9473C221.343 59.9473 223.014 59.571 224.382 58.7501L223.353 57.0351C222.377 57.6204 221.089 57.9473 219.429 57.9473V59.9473ZM224.382 58.7501C225.726 57.9436 226.762 56.8009 227.486 55.3515L225.697 54.4571C225.133 55.5858 224.352 56.4353 223.353 57.0351L224.382 58.7501ZM227.478 55.3675C228.212 53.9632 228.71 52.345 228.987 50.5287L227.009 50.2271C226.759 51.8679 226.319 53.2673 225.706 54.441L227.478 55.3675ZM228.987 50.5263C229.259 48.7126 229.394 46.7581 229.394 44.665H227.394C227.394 46.6735 227.264 48.5277 227.009 50.2296L228.987 50.5263ZM248.389 34.1621L249.335 34.484L249.336 34.4812L248.389 34.1621ZM259.771 21.418L260.167 22.3361L260.175 22.3326L259.771 21.418ZM278.975 21.418L278.574 22.3342L278.582 22.3376L278.975 21.418ZM286.05 26.4717L285.298 27.1316L285.303 27.1373L286.05 26.4717ZM290.444 34.1621L289.497 34.4812L289.498 34.484L290.444 34.1621ZM290.444 54.333L291.391 54.6549L291.392 54.6521L290.444 54.333ZM286.05 62.0234L285.299 61.3628L285.298 61.3635L286.05 62.0234ZM259.814 67.0771L259.418 67.9953L259.422 67.9968L259.814 67.0771ZM252.739 62.0234L251.984 62.6784L251.988 62.6837L251.993 62.6891L252.739 62.0234ZM248.389 54.333L247.441 54.6521L247.442 54.6549L248.389 54.333ZM261.748 54.8604L260.882 55.3606L260.889 55.3721L260.896 55.3834L261.748 54.8604ZM276.997 54.8604L277.858 55.3691L277.863 55.3606L276.997 54.8604ZM278.667 50.29L277.69 50.0749L277.689 50.0828L277.687 50.0907L278.667 50.29ZM278.667 38.3369L277.687 38.5362L277.689 38.5459L277.691 38.5556L278.667 38.3369ZM276.953 33.7666L276.083 34.2587L276.089 34.27L276.096 34.2811L276.953 33.7666ZM264.78 30.6025L264.263 29.7468L264.254 29.7523L264.78 30.6025ZM261.748 33.7666L260.886 33.2604L260.882 33.2663L261.748 33.7666ZM260.078 38.3369L261.057 38.5395L261.058 38.5362L260.078 38.3369ZM247.895 44.709V43.7861H245.895V44.709H247.895ZM247.895 43.7861C247.895 40.3956 248.379 37.2978 249.335 34.484L247.442 33.8402C246.406 36.8858 245.895 40.204 245.895 43.7861H247.895ZM249.336 34.4812C250.294 31.6373 251.681 29.1922 253.491 27.1316L251.988 25.8117C249.989 28.0871 248.476 30.7689 247.441 33.8431L249.336 34.4812ZM253.491 27.1316C255.292 25.0806 257.513 23.4816 260.167 22.3361L259.374 20.4998C256.462 21.7567 253.995 23.5268 251.988 25.8117L253.491 27.1316ZM260.175 22.3326C262.809 21.1678 265.861 20.5723 269.351 20.5723V18.5723C265.633 18.5723 262.298 19.2072 259.366 20.5034L260.175 22.3326ZM269.351 20.5723C272.84 20.5723 275.908 21.1677 278.574 22.3341L279.375 20.5018C276.417 19.2073 273.068 18.5723 269.351 18.5723V20.5723ZM278.582 22.3376C281.265 23.4837 283.499 25.0826 285.298 27.1316L286.801 25.8117C284.792 23.5248 282.309 21.7546 279.367 20.4983L278.582 22.3376ZM285.303 27.1373C287.141 29.1972 288.54 31.6404 289.497 34.4812L291.392 33.8431C290.356 30.7658 288.826 28.0821 286.796 25.8061L285.303 27.1373ZM289.498 34.484C290.454 37.2978 290.938 40.3956 290.938 43.7861H292.938C292.938 40.204 292.427 36.8858 291.391 33.8402L289.498 34.484ZM290.938 43.7861V44.709H292.938V43.7861H290.938ZM290.938 44.709C290.938 48.0691 290.455 51.1682 289.497 54.014L291.392 54.6521C292.426 51.5799 292.938 48.2629 292.938 44.709H290.938ZM289.498 54.0111C288.541 56.8233 287.141 59.27 285.299 61.3628L286.801 62.6841C288.826 60.3823 290.355 57.7021 291.391 54.6549L289.498 54.0111ZM285.298 61.3635C283.497 63.4145 281.277 65.0135 278.622 66.159L279.415 67.9953C282.327 66.7385 284.794 64.9683 286.801 62.6834L285.298 61.3635ZM278.622 66.159C275.986 67.297 272.931 67.8789 269.438 67.8789V69.8789C273.153 69.8789 276.485 69.2597 279.415 67.9953L278.622 66.159ZM269.438 67.8789C265.946 67.8789 262.875 67.2971 260.207 66.1575L259.422 67.9968C262.378 69.2596 265.724 69.8789 269.438 69.8789V67.8789ZM260.211 66.159C257.555 65.013 255.318 63.4124 253.486 61.3578L251.993 62.6891C254.028 64.9704 256.507 66.739 259.418 67.9953L260.211 66.159ZM253.495 61.3685C251.681 59.275 250.293 56.8264 249.335 54.0111L247.442 54.6549C248.477 57.699 249.989 60.3773 251.984 62.6784L253.495 61.3685ZM249.336 54.014C248.378 51.1682 247.895 48.0691 247.895 44.709H245.895C245.895 48.2629 246.407 51.5799 247.441 54.6521L249.336 54.014ZM258.551 43.7861V44.709H260.551V43.7861H258.551ZM258.551 44.709C258.551 46.7597 258.732 48.6874 259.098 50.4893L261.058 50.0907C260.721 48.4356 260.551 46.6427 260.551 44.709H258.551ZM259.098 50.4893C259.468 52.3073 260.059 53.9353 260.882 55.3606L262.614 54.3601C261.914 53.1487 261.391 51.7299 261.058 50.0907L259.098 50.4893ZM260.896 55.3834C261.77 56.8079 262.913 57.9383 264.322 58.7571L265.327 57.0281C264.216 56.382 263.308 55.4909 262.6 54.3373L260.896 55.3834ZM264.322 58.7571C265.767 59.5976 267.489 59.9912 269.438 59.9912V57.9912C267.756 57.9912 266.401 57.6524 265.327 57.0281L264.322 58.7571ZM269.438 59.9912C271.336 59.9912 273.026 59.5949 274.467 58.7571L273.462 57.0281C272.384 57.6551 271.056 57.9912 269.438 57.9912V59.9912ZM274.467 58.7571C275.879 57.9362 277.012 56.8012 277.858 55.3691L276.136 54.3516C275.459 55.4976 274.57 56.3841 273.462 57.0281L274.467 58.7571ZM277.863 55.3606C278.686 53.9353 279.277 52.3073 279.647 50.4893L277.687 50.0907C277.354 51.7299 276.831 53.1487 276.131 54.3601L277.863 55.3606ZM279.644 50.5052C280.042 48.6979 280.238 46.7647 280.238 44.709H278.238C278.238 46.6377 278.054 48.4252 277.69 50.0749L279.644 50.5052ZM280.238 44.709V43.7861H278.238V44.709H280.238ZM280.238 43.7861C280.238 41.7869 280.041 39.8966 279.643 38.1182L277.691 38.5556C278.054 40.1757 278.238 41.9181 278.238 43.7861H280.238ZM279.647 38.1376C279.276 36.314 278.668 34.681 277.811 33.2521L276.096 34.2811C276.82 35.4889 277.355 36.9028 277.687 38.5362L279.647 38.1376ZM277.824 33.2745C276.982 31.7853 275.853 30.602 274.438 29.7468L273.403 31.4583C274.509 32.1265 275.401 33.0525 276.083 34.2587L277.824 33.2745ZM274.438 29.7468C272.992 28.8724 271.281 28.46 269.351 28.46V30.46C270.994 30.46 272.33 30.8093 273.403 31.4583L274.438 29.7468ZM269.351 28.46C267.42 28.46 265.709 28.8724 264.263 29.7468L265.298 31.4583C266.371 30.8093 267.707 30.46 269.351 30.46V28.46ZM264.254 29.7523C262.874 30.6064 261.752 31.7839 260.886 33.2604L262.61 34.2728C263.326 33.054 264.225 32.1221 265.307 31.4528L264.254 29.7523ZM260.882 33.2663C260.059 34.6917 259.468 36.3197 259.098 38.1376L261.058 38.5362C261.391 36.8971 261.914 35.4782 262.614 34.2669L260.882 33.2663ZM259.099 38.1343C258.732 39.9072 258.551 41.7921 258.551 43.7861H260.551C260.551 41.913 260.721 40.165 261.057 38.5395L259.099 38.1343ZM299.189 34.1621L300.136 34.484L300.137 34.4812L299.189 34.1621ZM310.571 21.418L310.968 22.3361L310.976 22.3326L310.571 21.418ZM329.775 21.418L329.375 22.3342L329.383 22.3376L329.775 21.418ZM336.851 26.4717L336.099 27.1316L336.104 27.1373L336.851 26.4717ZM341.245 34.1621L340.297 34.4812L340.298 34.484L341.245 34.1621ZM341.245 54.333L342.192 54.6549L342.193 54.6521L341.245 54.333ZM336.851 62.0234L336.1 61.3628L336.099 61.3635L336.851 62.0234ZM310.615 67.0771L310.219 67.9953L310.222 67.9968L310.615 67.0771ZM303.54 62.0234L302.784 62.6784L302.789 62.6837L302.794 62.6891L303.54 62.0234ZM299.189 54.333L298.242 54.6521L298.243 54.6549L299.189 54.333ZM312.549 54.8604L311.683 55.3606L311.69 55.3721L311.697 55.3834L312.549 54.8604ZM327.798 54.8604L328.659 55.3691L328.664 55.3606L327.798 54.8604ZM329.468 50.29L328.491 50.0749L328.489 50.0828L328.488 50.0907L329.468 50.29ZM329.468 38.3369L328.488 38.5362L328.49 38.5459L328.492 38.5556L329.468 38.3369ZM327.754 33.7666L326.883 34.2587L326.89 34.27L326.896 34.2811L327.754 33.7666ZM315.581 30.6025L315.064 29.7468L315.055 29.7523L315.581 30.6025ZM312.549 33.7666L311.686 33.2604L311.683 33.2663L312.549 33.7666ZM310.879 38.3369L311.858 38.5395L311.859 38.5362L310.879 38.3369ZM298.695 44.709V43.7861H296.695V44.709H298.695ZM298.695 43.7861C298.695 40.3956 299.18 37.2978 300.136 34.484L298.243 33.8402C297.207 36.8858 296.695 40.204 296.695 43.7861H298.695ZM300.137 34.4812C301.095 31.6373 302.481 29.1922 304.291 27.1316L302.789 25.8117C300.79 28.0871 299.277 30.7689 298.242 33.8431L300.137 34.4812ZM304.291 27.1316C306.093 25.0806 308.313 23.4816 310.968 22.3361L310.175 20.4998C307.263 21.7567 304.796 23.5268 302.789 25.8117L304.291 27.1316ZM310.976 22.3326C313.61 21.1678 316.662 20.5723 320.151 20.5723V18.5723C316.434 18.5723 313.099 19.2072 310.167 20.5034L310.976 22.3326ZM320.151 20.5723C323.641 20.5723 326.708 21.1677 329.375 22.3341L330.176 20.5018C327.217 19.2073 323.869 18.5723 320.151 18.5723V20.5723ZM329.383 22.3376C332.066 23.4837 334.299 25.0826 336.099 27.1316L337.602 25.8117C335.593 23.5248 333.11 21.7546 330.168 20.4983L329.383 22.3376ZM336.104 27.1373C337.941 29.1972 339.341 31.6404 340.297 34.4812L342.193 33.8431C341.157 30.7658 339.627 28.0821 337.597 25.8061L336.104 27.1373ZM340.298 34.484C341.255 37.2978 341.739 40.3956 341.739 43.7861H343.739C343.739 40.204 343.227 36.8858 342.192 33.8402L340.298 34.484ZM341.739 43.7861V44.709H343.739V43.7861H341.739ZM341.739 44.709C341.739 48.0691 341.255 51.1682 340.297 54.014L342.193 54.6521C343.227 51.5799 343.739 48.2629 343.739 44.709H341.739ZM340.298 54.0111C339.342 56.8233 337.942 59.27 336.1 61.3628L337.601 62.6841C339.627 60.3823 341.156 57.7021 342.192 54.6549L340.298 54.0111ZM336.099 61.3635C334.298 63.4145 332.077 65.0135 329.423 66.159L330.216 67.9953C333.128 66.7385 335.595 64.9683 337.602 62.6834L336.099 61.3635ZM329.423 66.159C326.786 67.297 323.732 67.8789 320.239 67.8789V69.8789C323.954 69.8789 327.286 69.2597 330.216 67.9953L329.423 66.159ZM320.239 67.8789C316.747 67.8789 313.676 67.2971 311.008 66.1575L310.222 67.9968C313.179 69.2596 316.524 69.8789 320.239 69.8789V67.8789ZM311.011 66.159C308.356 65.013 306.119 63.4124 304.286 61.3578L302.794 62.6891C304.828 64.9704 307.308 66.739 310.219 67.9953L311.011 66.159ZM304.296 61.3685C302.481 59.275 301.093 56.8264 300.136 54.0111L298.243 54.6549C299.278 57.699 300.79 60.3773 302.784 62.6784L304.296 61.3685ZM300.137 54.014C299.179 51.1682 298.695 48.0691 298.695 44.709H296.695C296.695 48.2629 297.208 51.5799 298.242 54.6521L300.137 54.014ZM309.352 43.7861V44.709H311.352V43.7861H309.352ZM309.352 44.709C309.352 46.7597 309.532 48.6874 309.899 50.4893L311.859 50.0907C311.522 48.4356 311.352 46.6427 311.352 44.709H309.352ZM309.899 50.4893C310.269 52.3073 310.859 53.9353 311.683 55.3606L313.415 54.3601C312.715 53.1487 312.192 51.7299 311.859 50.0907L309.899 50.4893ZM311.697 55.3834C312.571 56.8079 313.714 57.9383 315.122 58.7571L316.128 57.0281C315.016 56.382 314.109 55.4909 313.401 54.3373L311.697 55.3834ZM315.122 58.7571C316.568 59.5976 318.289 59.9912 320.239 59.9912V57.9912C318.556 57.9912 317.201 57.6524 316.128 57.0281L315.122 58.7571ZM320.239 59.9912C322.137 59.9912 323.827 59.5949 325.268 58.7571L324.263 57.0281C323.185 57.6551 321.857 57.9912 320.239 57.9912V59.9912ZM325.268 58.7571C326.68 57.9362 327.813 56.8012 328.659 55.3691L326.937 54.3516C326.26 55.4976 325.371 56.3841 324.263 57.0281L325.268 58.7571ZM328.664 55.3606C329.487 53.9353 330.078 52.3073 330.448 50.4893L328.488 50.0907C328.154 51.7299 327.632 53.1487 326.932 54.3601L328.664 55.3606ZM330.444 50.5052C330.843 48.6979 331.039 46.7647 331.039 44.709H329.039C329.039 46.6377 328.855 48.4252 328.491 50.0749L330.444 50.5052ZM331.039 44.709V43.7861H329.039V44.709H331.039ZM331.039 43.7861C331.039 41.7869 330.842 39.8966 330.444 38.1182L328.492 38.5556C328.855 40.1757 329.039 41.9181 329.039 43.7861H331.039ZM330.448 38.1376C330.077 36.314 329.469 34.681 328.611 33.2521L326.896 34.2811C327.621 35.4889 328.156 36.9028 328.488 38.5362L330.448 38.1376ZM328.624 33.2745C327.783 31.7853 326.654 30.602 325.239 29.7468L324.204 31.4583C325.309 32.1265 326.202 33.0525 326.883 34.2587L328.624 33.2745ZM325.239 29.7468C323.793 28.8724 322.082 28.46 320.151 28.46V30.46C321.795 30.46 323.131 30.8093 324.204 31.4583L325.239 29.7468ZM320.151 28.46C318.221 28.46 316.51 28.8724 315.064 29.7468L316.098 31.4583C317.172 30.8093 318.508 30.46 320.151 30.46V28.46ZM315.055 29.7523C313.675 30.6064 312.553 31.7839 311.686 33.2604L313.411 34.2728C314.127 33.054 315.026 32.1221 316.107 31.4528L315.055 29.7523ZM311.683 33.2663C310.859 34.6917 310.269 36.3197 309.899 38.1376L311.859 38.5362C312.192 36.8971 312.715 35.4782 313.415 34.2669L311.683 33.2663ZM309.9 38.1343C309.533 39.9072 309.352 41.7921 309.352 43.7861H311.352C311.352 41.913 311.522 40.165 311.858 38.5395L309.9 38.1343ZM363.174 0.456055H364.174V-0.543945H363.174V0.456055ZM363.174 68V69H364.174V68H363.174ZM350.518 68H349.518V69H350.518V68ZM350.518 0.456055V-0.543945H349.518V0.456055H350.518ZM393.145 20.4512L393.896 21.1105L395.351 19.4512H393.145V20.4512ZM372.49 44.0059L373.202 44.7088L373.222 44.6876L373.242 44.6652L372.49 44.0059ZM361.416 55.2119L360.523 55.6626L361.15 56.9038L362.127 55.9148L361.416 55.2119ZM356.802 46.0713L356.016 45.4526L355.622 45.9532L355.909 46.5219L356.802 46.0713ZM365.591 34.9092L364.83 34.2597L364.817 34.2749L364.805 34.2905L365.591 34.9092ZM377.939 20.4512V19.4512H377.478L377.179 19.8017L377.939 20.4512ZM380.005 68L379.163 68.5391L379.458 69H380.005V68ZM365.942 46.0273L365.284 45.2745L364.636 45.8412L365.1 46.5664L365.942 46.0273ZM374.688 38.3809L375.517 37.823L374.884 36.8806L374.029 37.628L374.688 38.3809ZM394.595 68V69H396.472L395.425 67.4422L394.595 68ZM362.174 0.456055V68H364.174V0.456055H362.174ZM363.174 67H350.518V69H363.174V67ZM351.518 68V0.456055H349.518V68H351.518ZM350.518 1.45605H363.174V-0.543945H350.518V1.45605ZM392.393 19.7919L371.738 43.3466L373.242 44.6652L393.896 21.1105L392.393 19.7919ZM371.779 43.3029L360.705 54.509L362.127 55.9148L373.202 44.7088L371.779 43.3029ZM362.309 54.7613L357.694 45.6206L355.909 46.5219L360.523 55.6626L362.309 54.7613ZM357.587 46.6899L366.376 35.5278L364.805 34.2905L356.016 45.4526L357.587 46.6899ZM366.351 35.5586L378.7 21.1006L377.179 19.8017L364.83 34.2597L366.351 35.5586ZM377.939 21.4512H393.145V19.4512H377.939V21.4512ZM380.847 67.4609L366.785 45.4883L365.1 46.5664L379.163 68.5391L380.847 67.4609ZM366.601 46.7802L375.346 39.1337L374.029 37.628L365.284 45.2745L366.601 46.7802ZM373.858 38.9387L393.765 68.5578L395.425 67.4422L375.517 37.823L373.858 38.9387ZM394.595 67H380.005V69H394.595V67Z" fill="#81B994"/>
</svg>
