<svg width="64" height="64" viewBox="0 0 64 64" fill="none" xmlns="http://www.w3.org/2000/svg">
<path d="M48.8022 25.1978H33.6022V30.7978C33.6022 34.7678 30.3722 37.9978 26.4022 37.9978C22.4322 37.9978 19.2022 34.7678 19.2022 30.7978V18.6378L12.7123 22.5378C10.7823 23.6878 9.60226 25.7778 9.60226 28.0178V32.7478L1.60228 37.3678C0.0722807 38.2478 -0.457718 40.2078 0.43228 41.7378L8.43227 55.5977C9.31226 57.1277 11.2723 57.6477 12.8023 56.7677L23.1422 50.7978H36.8022C40.3322 50.7978 43.2022 47.9278 43.2022 44.3978H44.8022C46.5722 44.3978 48.0022 42.9678 48.0022 41.1978V34.7978H48.8022C50.1322 34.7978 51.2022 33.7278 51.2022 32.3978V27.5978C51.2022 26.2678 50.1322 25.1978 48.8022 25.1978ZM63.5722 21.4578L55.5722 7.59783C54.6922 6.06784 52.7322 5.54784 51.2022 6.42784L40.8622 12.3978H30.6422C29.4422 12.3978 28.2722 12.7378 27.2522 13.3678L23.9022 15.4578C22.9622 16.0378 22.4022 17.0678 22.4022 18.1678V30.7978C22.4022 33.0078 24.1922 34.7978 26.4022 34.7978C28.6122 34.7978 30.4022 33.0078 30.4022 30.7978V21.9978H48.8022C51.8922 21.9978 54.4022 24.5078 54.4022 27.5978V30.4478L62.4022 25.8278C63.9322 24.9378 64.4522 22.9878 63.5722 21.4578Z" fill="#35F896"/>
</svg>
