<svg width="64" height="64" viewBox="0 0 64 64" fill="none" xmlns="http://www.w3.org/2000/svg">
<path d="M57.3 8.04024C50.075 1.96524 38.9125 2.87774 32 9.91523C25.0875 2.87774 13.925 1.95274 6.70001 8.04024C-2.69998 15.9527 -1.32498 28.8527 5.37501 35.6902L27.3 58.0277C28.55 59.3027 30.225 60.0152 32 60.0152C33.7875 60.0152 35.45 59.3152 36.7 58.0402L58.625 35.7027C65.3125 28.8652 66.7125 15.9652 57.3 8.04024ZM54.35 31.4777L32.425 53.8152C32.125 54.1152 31.875 54.1152 31.575 53.8152L9.65001 31.4777C5.08751 26.8277 4.16251 18.0277 10.5625 12.6402C15.425 8.55274 22.925 9.16523 27.625 13.9527L32 18.4152L36.375 13.9527C41.1 9.14023 48.6 8.55274 53.4375 12.6277C59.825 18.0152 58.875 26.8652 54.35 31.4777Z" fill="#35F896"/>
</svg>
