<svg width="64" height="64" viewBox="0 0 64 64" fill="none" xmlns="http://www.w3.org/2000/svg">
<path d="M31.1515 19.9112L10.6675 36.7821V54.9907C10.6675 55.4622 10.8548 55.9144 11.1882 56.2477C11.5215 56.5811 11.9737 56.7684 12.4452 56.7684L24.8953 56.7362C25.3652 56.7338 25.8151 56.5455 26.1465 56.2124C26.478 55.8793 26.6641 55.4284 26.6641 54.9585V44.3249C26.6641 43.8534 26.8513 43.4013 27.1847 43.0679C27.5181 42.7345 27.9702 42.5473 28.4417 42.5473H35.5523C36.0237 42.5473 36.4759 42.7345 36.8092 43.0679C37.1426 43.4013 37.3299 43.8534 37.3299 44.3249V54.9507C37.3292 55.1847 37.3746 55.4164 37.4636 55.6327C37.5526 55.849 37.6835 56.0457 37.8486 56.2113C38.0137 56.377 38.2099 56.5084 38.426 56.5981C38.642 56.6878 38.8736 56.7339 39.1075 56.7339L51.5532 56.7684C52.0247 56.7684 52.4769 56.5811 52.8102 56.2477C53.1436 55.9144 53.3309 55.4622 53.3309 54.9907V36.7699L32.8514 19.9112C32.6106 19.7172 32.3107 19.6113 32.0014 19.6113C31.6922 19.6113 31.3923 19.7172 31.1515 19.9112ZM63.5079 31.3781L54.2197 23.722V8.33323C54.2197 7.97964 54.0792 7.64052 53.8292 7.39049C53.5792 7.14047 53.2401 7 52.8865 7H46.6647C46.3111 7 45.972 7.14047 45.722 7.39049C45.472 7.64052 45.3315 7.97964 45.3315 8.33323V16.4004L35.3845 8.21657C34.4299 7.43105 33.2321 7.00157 31.9959 7.00157C30.7596 7.00157 29.5618 7.43105 28.6072 8.21657L0.48385 31.3781C0.348847 31.4897 0.237153 31.6268 0.15515 31.7816C0.0731476 31.9363 0.0224436 32.1057 0.00593527 32.2801C-0.010573 32.4545 0.00743794 32.6304 0.058939 32.7978C0.11044 32.9652 0.194422 33.1208 0.306086 33.2558L3.1392 36.6999C3.25056 36.8353 3.38753 36.9475 3.54228 37.0299C3.69702 37.1123 3.8665 37.1633 4.04101 37.1802C4.21552 37.197 4.39163 37.1792 4.55927 37.1279C4.72691 37.0766 4.88277 36.9927 5.01795 36.881L31.1515 15.356C31.3923 15.162 31.6922 15.0561 32.0014 15.0561C32.3107 15.0561 32.6106 15.162 32.8514 15.356L58.986 36.881C59.121 36.9927 59.2766 37.0767 59.444 37.1282C59.6114 37.1797 59.7873 37.1977 59.9617 37.1812C60.136 37.1647 60.3054 37.114 60.4602 37.032C60.615 36.95 60.7521 36.8383 60.8636 36.7033L63.6968 33.2591C63.8083 33.1234 63.8919 32.9669 63.9428 32.7988C63.9937 32.6307 64.0109 32.4541 63.9933 32.2793C63.9758 32.1045 63.9239 31.9349 63.8405 31.7803C63.7572 31.6256 63.6442 31.4889 63.5079 31.3781Z" fill="#07C063"/>
</svg>
