<svg width="64" height="64" viewBox="0 0 64 64" fill="none" xmlns="http://www.w3.org/2000/svg">
<path d="M41.2903 32.2903C41.2903 37.4258 37.1355 41.5806 32 41.5806C26.8645 41.5806 22.7097 37.4258 22.7097 32.2903C22.7097 27.1548 26.8645 23 32 23C37.1355 23 41.2903 27.1548 41.2903 32.2903ZM54.7097 23C49.5742 23 45.4194 27.1548 45.4194 32.2903C45.4194 37.4258 49.5742 41.5806 54.7097 41.5806C59.8452 41.5806 64 37.4258 64 32.2903C64 27.1548 59.8452 23 54.7097 23ZM9.29032 23C4.15484 23 0 27.1548 0 32.2903C0 37.4258 4.15484 41.5806 9.29032 41.5806C14.4258 41.5806 18.5806 37.4258 18.5806 32.2903C18.5806 27.1548 14.4258 23 9.29032 23Z" fill="#35F896"/>
</svg>
