<svg width="64" height="64" viewBox="0 0 64 64" fill="none" xmlns="http://www.w3.org/2000/svg">
<path d="M64 18V54C64 57.3125 61.3125 60 58 60H6C2.6875 60 0 57.3125 0 54V18C0 14.6875 2.6875 12 6 12H17L18.5375 7.8875C19.4125 5.55 21.65 4 24.15 4H39.8375C42.3375 4 44.575 5.55 45.45 7.8875L47 12H58C61.3125 12 64 14.6875 64 18ZM47 36C47 27.725 40.275 21 32 21C23.725 21 17 27.725 17 36C17 44.275 23.725 51 32 51C40.275 51 47 44.275 47 36ZM43 36C43 42.0625 38.0625 47 32 47C25.9375 47 21 42.0625 21 36C21 29.9375 25.9375 25 32 25C38.0625 25 43 29.9375 43 36Z" fill="#35F896"/>
</svg>
