<svg width="64" height="64" viewBox="0 0 64 64" fill="none" xmlns="http://www.w3.org/2000/svg">
<path d="M50.7777 6.86983C58.7777 12.5841 63.9841 21.9301 63.9841 32.5079C63.9841 49.8793 49.9143 63.9618 32.5555 63.9999C15.2222 64.038 1.02542 49.9047 1.00002 32.5587C0.987325 21.9809 6.19367 12.6095 14.181 6.88253C15.6667 5.82856 17.7365 6.27301 18.6254 7.86031L20.6317 11.4286C21.381 12.7619 21.0254 14.4508 19.7937 15.3651C14.5238 19.2762 11.1587 25.473 11.1587 32.4952C11.146 44.2158 20.619 53.8412 32.4921 53.8412C44.1238 53.8412 53.9015 44.419 53.8254 32.3682C53.7873 25.7904 50.6889 19.4412 45.1777 15.3524C43.946 14.4381 43.6031 12.7492 44.3524 11.4286L46.3587 7.86031C47.2476 6.28571 49.3047 5.81587 50.7777 6.86983ZM37.5714 33.5238V3.04762C37.5714 1.35873 36.2127 0 34.5238 0H30.4603C28.7714 0 27.4127 1.35873 27.4127 3.04762V33.5238C27.4127 35.2127 28.7714 36.5714 30.4603 36.5714H34.5238C36.2127 36.5714 37.5714 35.2127 37.5714 33.5238Z" fill="#F9FAFB"/>
</svg>
