<svg width="64" height="64" viewBox="0 0 64 64" fill="none" xmlns="http://www.w3.org/2000/svg">
<g clip-path="url(#clip0_3_60)">
<path d="M63.1188 55.3321L50.6576 42.8708C50.0951 42.3084 49.3327 41.9959 48.5328 41.9959H46.4955C49.9451 37.5838 51.9949 32.0344 51.9949 25.9975C51.9949 11.6364 40.3586 0 25.9975 0C11.6364 0 0 11.6364 0 25.9975C0 40.3586 11.6364 51.9949 25.9975 51.9949C32.0344 51.9949 37.5838 49.9451 41.9959 46.4955V48.5328C41.9959 49.3327 42.3084 50.0951 42.8708 50.6576L55.3321 63.1188C56.507 64.2937 58.4068 64.2937 59.5692 63.1188L63.1063 59.5817C64.2812 58.4068 64.2812 56.507 63.1188 55.3321ZM25.9975 41.9959C17.1608 41.9959 9.99902 34.8466 9.99902 25.9975C9.99902 17.1608 17.1483 9.99902 25.9975 9.99902C34.8341 9.99902 41.9959 17.1483 41.9959 25.9975C41.9959 34.8341 34.8466 41.9959 25.9975 41.9959Z" fill="#35F896"/>
</g>
<defs>
<clipPath id="clip0_3_60">
<rect width="64" height="64" fill="white"/>
</clipPath>
</defs>
</svg>
