<svg width="64" height="64" viewBox="0 0 64 64" fill="none" xmlns="http://www.w3.org/2000/svg">
<path d="M61.4844 39.6903L55.9877 36.5161C56.5425 33.5226 56.5425 30.4516 55.9877 27.4581L61.4844 24.2839C62.1167 23.9226 62.4006 23.1742 62.1941 22.4775C60.7618 17.8839 58.3232 13.7291 55.1361 10.271C54.6457 9.74202 53.8457 9.61299 53.2264 9.97428L47.7296 13.1485C45.42 11.1614 42.7619 9.62589 39.8845 8.61944V2.28398C39.8845 1.56141 39.3813 0.92915 38.6716 0.774311C33.9361 -0.283749 29.0846 -0.232136 24.5813 0.774311C23.8717 0.92915 23.3684 1.56141 23.3684 2.28398V8.63235C20.5039 9.6517 17.8459 11.1872 15.5233 13.1614L10.0395 9.98718C9.40721 9.62589 8.62012 9.74202 8.12979 10.284C4.94271 13.7291 2.50401 17.8839 1.07176 22.4904C0.852403 23.1871 1.14918 23.9355 1.78143 24.2968L7.27818 27.471C6.72335 30.4645 6.72335 33.5355 7.27818 36.529L1.78143 39.7032C1.14918 40.0645 0.865306 40.8129 1.07176 41.5096C2.50401 46.1032 4.94271 50.258 8.12979 53.716C8.62012 54.2451 9.42011 54.3741 10.0395 54.0128L15.5362 50.8386C17.8459 52.8257 20.5039 54.3612 23.3814 55.3677V61.716C23.3814 62.4386 23.8846 63.0708 24.5942 63.2257C29.3297 64.2837 34.1813 64.2321 38.6845 63.2257C39.3942 63.0708 39.8974 62.4386 39.8974 61.716V55.3677C42.7619 54.3483 45.42 52.8128 47.7425 50.8386L53.2393 54.0128C53.8716 54.3741 54.6586 54.258 55.149 53.716C58.3361 50.2709 60.7748 46.1161 62.207 41.5096C62.4006 40.8 62.1167 40.0516 61.4844 39.6903ZM31.6265 42.3096C25.9362 42.3096 21.3039 37.6774 21.3039 31.9871C21.3039 26.2968 25.9362 21.6646 31.6265 21.6646C37.3168 21.6646 41.949 26.2968 41.949 31.9871C41.949 37.6774 37.3168 42.3096 31.6265 42.3096Z" fill="#07C063"/>
</svg>
